<svg width="171" height="160" viewBox="0 0 171 160" fill="none" xmlns="http://www.w3.org/2000/svg">
<g clip-path="url(#clip0_7_61)">
<path d="M67.7835 103.204C67.9994 104.271 69.0398 104.962 70.1074 104.746C71.175 104.53 71.8654 103.489 71.6496 102.422L67.7835 103.204ZM77.9243 97.8863C78.9918 98.1026 80.0325 97.4126 80.2489 96.3451C80.4652 95.2776 79.7752 94.2369 78.7077 94.0205L77.9243 97.8863ZM81.8378 92.0116C82.0937 93.0703 83.1593 93.7212 84.2181 93.4653C85.2768 93.2094 85.9276 92.1438 85.6717 91.0851L81.8378 92.0116ZM91.0914 87.2253C92.1477 87.4909 93.2194 86.85 93.4851 85.7938C93.7507 84.7375 93.1098 83.6658 92.0536 83.4001L91.0914 87.2253ZM64.439 112.564C63.8237 113.462 64.0535 114.69 64.9523 115.305C65.8511 115.92 67.0784 115.69 67.6937 114.792L64.439 112.564ZM70.0228 111.389C70.6381 110.491 70.4082 109.263 69.5095 108.648C68.6107 108.033 67.3833 108.263 66.7681 109.161L70.0228 111.389ZM98.6055 85.355C97.5597 85.6593 96.9585 86.7537 97.2628 87.7996C97.5671 88.8454 98.6616 89.4465 99.7074 89.1422L98.6055 85.355ZM104.004 87.892C105.05 87.5877 105.651 86.4933 105.347 85.4474C105.042 84.4016 103.948 83.8005 102.902 84.1048L104.004 87.892ZM56.0093 58.0047L57.9614 57.7242L57.9614 57.7242L56.0093 58.0047ZM49.6834 13.9702L51.6355 13.6898L51.6355 13.6898L49.6834 13.9702ZM69.1207 10.6137L71.0538 10.2233L71.0538 10.2233L69.1207 10.6137ZM77.1946 50.5859L75.2615 50.9764L75.6088 52.6957L77.3569 52.5514L77.1946 50.5859ZM78.6952 50.462L78.8575 52.4275L80.9036 52.2585L80.6526 50.2209L78.6952 50.462ZM74.3205 14.9444L76.2779 14.7033L76.2779 14.7033L74.3205 14.9444ZM90.562 12.2361L88.6323 12.6432L88.6323 12.6432L90.562 12.2361ZM97.5586 45.4002L95.6289 45.8073L95.9964 47.549L97.7665 47.3613L97.5586 45.4002ZM100.135 45.1271L100.343 47.0882L102.34 46.8765L102.092 44.8834L100.135 45.1271ZM97.2481 21.9444L99.2051 21.7007L99.2051 21.7007L97.2481 21.9444ZM113.878 17.9384L112.024 18.6126L112.024 18.6127L113.878 17.9384ZM127.59 55.6326L129.444 54.9583L129.444 54.9583L127.59 55.6326ZM133.803 67.0914L135.407 65.9436L135.407 65.9436L133.803 67.0914ZM139.825 121.671L141.473 122.755L141.473 122.755L139.825 121.671ZM113.479 148.254L112.401 146.603L112.401 146.603L113.479 148.254ZM98.9967 155.244L99.5957 157.123L99.5957 157.123L98.9967 155.244ZM57.6694 143.557L56.6261 145.231L56.6261 145.231L57.6694 143.557ZM7.59028 112.334L8.63368 110.661L8.63368 110.661L7.59028 112.334ZM15.5719 93.9468L16.0818 92.0417L16.0818 92.0417L15.5719 93.9468ZM39.8757 100.453L40.3857 98.5479L40.3857 98.5479L39.8757 100.453ZM44.05 27.6756L45.9218 27.0545L45.9218 27.0545L44.05 27.6756ZM47.4542 37.9355L49.3563 37.4144L49.3425 37.3641L49.326 37.3145L47.4542 37.9355ZM53.1171 58.6061L55.0191 58.085L55.0191 58.085L53.1171 58.6061ZM40.4816 99.8574L42.3952 99.3803L42.3952 99.3803L40.4816 99.8574ZM31.2373 62.7787L29.2939 63.1141L29.3062 63.1855L29.3238 63.2558L31.2373 62.7787ZM25.9621 32.21L24.0187 32.5453L24.0187 32.5453L25.9621 32.21ZM3.17747 101.061L1.27525 100.541L1.27525 100.541L3.17747 101.061ZM82.9892 5.7113L82.8719 7.67995L82.8719 7.67995L82.9892 5.7113ZM58.3916 2.7576L58.1801 0.796825L58.1801 0.796825L58.3916 2.7576ZM55.1482 59.5663L54.3436 57.7657L54.3436 57.7657L55.1482 59.5663ZM104.146 12.4322L103.769 10.4963L103.769 10.4963L104.146 12.4322ZM30.0774 22.7824L31.1528 24.4356L31.1528 24.4356L30.0774 22.7824ZM42.3844 63.9087C41.4675 64.4965 41.2007 65.7164 41.7886 66.6333C42.3765 67.5502 43.5964 67.817 44.5133 67.2291L42.3844 63.9087ZM69.7165 102.813L71.6496 102.422C71.5014 101.689 71.7581 100.258 72.755 99.1481C73.633 98.1708 75.1977 97.3337 77.9243 97.8863L78.316 95.9534L78.7077 94.0205C74.7208 93.2125 71.7047 94.415 69.8207 96.5123C68.0558 98.4772 67.3694 101.156 67.7835 103.204L69.7165 102.813ZM83.7548 91.5483L85.6717 91.0851C85.493 90.3456 85.6936 89.0405 86.5063 88.1056C87.1834 87.3268 88.4995 86.5733 91.0914 87.2253L91.5725 85.3127L92.0536 83.4001C88.2447 82.4421 85.3248 83.453 83.5297 85.5178C81.8702 87.4266 81.3624 90.0443 81.8378 92.0116L83.7548 91.5483ZM66.0663 113.678L67.6937 114.792L70.0228 111.389L68.3954 110.275L66.7681 109.161L64.439 112.564L66.0663 113.678ZM99.1564 87.2486L99.7074 89.1422L104.004 87.892L103.453 85.9984L102.902 84.1048L98.6055 85.355L99.1564 87.2486ZM56.0093 58.0047L57.9614 57.7242L51.6355 13.6898L49.6834 13.9702L47.7313 14.2506L54.0572 58.2851L56.0093 58.0047ZM69.1207 10.6137L67.1876 11.0042L75.2615 50.9764L77.1946 50.5859L79.1277 50.1954L71.0538 10.2233L69.1207 10.6137ZM77.1946 50.5859L77.3569 52.5514L78.8575 52.4275L78.6952 50.462L78.533 48.4965L77.0323 48.6204L77.1946 50.5859ZM78.6952 50.462L80.6526 50.2209L76.2779 14.7033L74.3205 14.9444L72.3632 15.1855L76.7379 50.7031L78.6952 50.462ZM90.562 12.2361L88.6323 12.6432L95.6289 45.8073L97.5586 45.4002L99.4882 44.9931L92.4917 11.829L90.562 12.2361ZM97.5586 45.4002L97.7665 47.3613L100.343 47.0882L100.135 45.1271L99.9269 43.1659L97.3507 43.439L97.5586 45.4002ZM100.135 45.1271L102.092 44.8834L99.2051 21.7007L97.2481 21.9444L95.2911 22.1881L98.1777 45.3708L100.135 45.1271ZM113.878 17.9384L112.024 18.6127L125.737 56.3068L127.59 55.6326L129.444 54.9583L115.731 17.2642L113.878 17.9384ZM133.803 67.0914L132.2 68.2392C141.768 81.6086 151.25 100.719 138.178 120.587L139.825 121.671L141.473 122.755C156.022 100.641 145.107 79.4967 135.407 65.9436L133.803 67.0914ZM113.479 148.254L112.401 146.603C108.174 149.364 103.364 151.782 98.3976 153.365L98.9967 155.244L99.5957 157.123C104.951 155.416 110.081 152.83 114.558 149.905L113.479 148.254ZM57.6694 143.557L58.7128 141.884L8.63368 110.661L7.59028 112.334L6.54688 114.008L56.6261 145.231L57.6694 143.557ZM15.5719 93.9468L15.0619 95.8519L39.3657 102.358L39.8757 100.453L40.3857 98.5479L16.0818 92.0417L15.5719 93.9468ZM44.05 27.6756L42.1782 28.2966L45.5824 38.5566L47.4542 37.9355L49.326 37.3145L45.9218 27.0545L44.05 27.6756ZM47.4542 37.9355L45.5521 38.4566L51.215 59.1272L53.1171 58.6061L55.0191 58.085L49.3563 37.4144L47.4542 37.9355ZM40.4816 99.8574L42.3952 99.3803L33.1509 62.3017L31.2373 62.7787L29.3238 63.2558L38.568 100.334L40.4816 99.8574ZM31.2373 62.7787L33.1808 62.4434L27.9055 31.8746L25.9621 32.21L24.0187 32.5453L29.2939 63.1141L31.2373 62.7787ZM3.17747 101.061L5.07969 101.581C6.26462 97.251 10.7249 94.6909 15.0619 95.8519L15.5719 93.9468L16.0818 92.0417C9.64881 90.3196 3.03285 94.1171 1.27525 100.541L3.17747 101.061ZM7.59028 112.334L8.63368 110.661C5.57271 108.752 4.12769 105.061 5.0797 101.581L3.17747 101.061L1.27525 100.541C-0.136863 105.701 2.00654 111.177 6.54688 114.008L7.59028 112.334ZM98.9967 155.244L98.3976 153.365C91.7859 155.473 85.1088 154.646 78.4134 152.238C71.6877 149.82 65.0988 145.865 58.7128 141.884L57.6694 143.557L56.6261 145.231C62.9917 149.2 69.9079 153.371 77.0787 155.95C84.2797 158.539 91.8904 159.58 99.5957 157.123L98.9967 155.244ZM139.825 121.671L138.178 120.587C131.462 130.794 122.589 139.946 112.401 146.603L113.479 148.254L114.558 149.905C125.239 142.926 134.487 133.373 141.473 122.755L139.825 121.671ZM127.59 55.6326L125.737 56.3068C127.306 60.6211 129.582 64.5821 132.2 68.2392L133.803 67.0914L135.407 65.9436C132.94 62.4969 130.86 58.8533 129.444 54.9583L127.59 55.6326ZM82.9892 5.7113L82.8719 7.67995C85.6908 7.84791 88.0494 9.88006 88.6323 12.6432L90.562 12.2361L92.4917 11.829C91.5419 7.32718 87.6992 4.01628 83.1065 3.74264L82.9892 5.7113ZM74.3205 14.9444L76.2779 14.7033C75.7991 10.8163 78.9624 7.44702 82.8719 7.67995L82.9892 5.7113L83.1065 3.74264C76.737 3.36313 71.5832 8.85258 72.3632 15.1855L74.3205 14.9444ZM58.3916 2.7576L58.603 4.71838C62.6588 4.28095 66.38 7.00563 67.1876 11.0042L69.1207 10.6137L71.0538 10.2233C69.8426 4.22688 64.2623 0.140842 58.1801 0.796825L58.3916 2.7576ZM49.6834 13.9702L51.6355 13.6898C51 9.26619 54.1598 5.19759 58.603 4.71838L58.3916 2.7576L58.1801 0.796825C51.5169 1.51547 46.7783 7.6169 47.7313 14.2506L49.6834 13.9702ZM55.1482 59.5663L55.9527 61.3669C57.3608 60.7377 58.1807 59.2508 57.9614 57.7242L56.0093 58.0047L54.0572 58.2851C54.0259 58.0674 54.1429 57.8554 54.3436 57.7657L55.1482 59.5663ZM104.146 12.4322L104.522 14.3681C107.727 13.7447 110.908 15.5449 112.024 18.6126L113.878 17.9384L115.731 17.2642C113.952 12.3728 108.878 9.50242 103.769 10.4963L104.146 12.4322ZM55.1482 59.5663L54.3436 57.7657C54.6191 57.6426 54.9394 57.7941 55.0191 58.085L53.1171 58.6061L51.215 59.1272C51.7741 61.168 54.0208 62.2301 55.9527 61.3669L55.1482 59.5663ZM97.2481 21.9444L99.2051 21.7007C98.7741 18.2387 101.098 15.0342 104.522 14.3681L104.146 12.4322L103.769 10.4963C98.3087 11.5586 94.6037 16.668 95.2911 22.1881L97.2481 21.9444ZM30.0774 22.7824L31.1528 24.4356C35.2053 21.7994 40.6558 23.7081 42.1782 28.2966L44.05 27.6756L45.9218 27.0545C43.5854 20.0129 35.221 17.0837 29.002 21.1293L30.0774 22.7824ZM30.0774 22.7824L29.002 21.1293C25.2088 23.5969 23.2492 28.0861 24.0187 32.5453L25.9621 32.21L27.9055 31.8746C27.4041 28.9688 28.681 26.0435 31.1528 24.4356L30.0774 22.7824ZM39.8757 100.453L39.3657 102.358C41.1802 102.844 42.8496 101.203 42.3952 99.3803L40.4816 99.8574L38.568 100.334C38.2954 99.2409 39.297 98.2564 40.3857 98.5479L39.8757 100.453ZM43.4488 65.5689L44.5133 67.2291C51.3016 62.8768 73.6419 52.2933 107.457 45.8193L107.086 43.8823L106.715 41.9453C72.5219 48.4918 49.6841 59.2284 42.3844 63.9087L43.4488 65.5689ZM68.9743 112.435L67.9294 114.108C70.8383 115.925 74.7348 116.708 78.7512 116.574C82.7946 116.439 87.134 115.371 91.0285 113.291C94.9307 111.207 98.4307 108.081 100.692 103.813C102.961 99.5307 103.915 94.2251 102.915 87.9162L100.967 88.2248L99.0196 88.5334C99.8999 94.0893 99.0343 98.5168 97.2065 101.966C95.3708 105.431 92.4968 108.036 89.1703 109.812C85.8361 111.593 82.0919 112.516 78.6196 112.632C75.1201 112.749 72.0685 112.043 70.0193 110.763L68.9743 112.435Z" fill="#02CD92"/>
<path d="M143.461 58C147.662 61.5886 156.867 73.4939 160.08 92.4063M157.806 59.4624C160.596 62.3266 166.584 71.0173 168.21 82.8663" stroke="#02CD92" stroke-width="3.94429" stroke-linecap="round"/>
</g>
<defs>
<clipPath id="clip0_7_61">
<rect width="171" height="160" fill="white"/>
</clipPath>
</defs>
</svg>
