<svg width="196" height="160" viewBox="0 0 196 160" fill="none" xmlns="http://www.w3.org/2000/svg">
<g clip-path="url(#clip0_9_134)">
<path d="M93.4416 102.416C93.6715 103.553 94.7794 104.288 95.9162 104.058C97.053 103.828 97.7882 102.721 97.5583 101.584L93.4416 102.416ZM101.831 98.0684C102.974 98.2689 104.062 97.5055 104.263 96.3632C104.464 95.2209 103.7 94.1322 102.558 93.9316L101.831 98.0684ZM106.655 91.5483C106.655 92.7081 107.595 93.6483 108.755 93.6483C109.915 93.6483 110.855 92.7081 110.855 91.5483H106.655ZM115.948 88.0246C117.067 88.3294 118.221 87.6694 118.526 86.5504C118.831 85.4314 118.171 84.2771 117.052 83.9723L115.948 88.0246ZM90.0727 112.666C89.612 113.73 90.1015 114.967 91.1659 115.427C92.2303 115.888 93.4666 115.398 93.9272 114.334L90.0727 112.666ZM95.3227 111.109C95.7833 110.045 95.2939 108.809 94.2295 108.348C93.1651 107.887 91.9288 108.377 91.4682 109.441L95.3227 111.109ZM124.156 85.1486C122.997 85.1486 122.056 86.0888 122.056 87.2486C122.056 88.4084 122.997 89.3486 124.156 89.3486V85.1486ZM127.75 89.3486C128.91 89.3486 129.85 88.4084 129.85 87.2486C129.85 86.0888 128.91 85.1486 127.75 85.1486V89.3486ZM81.0093 58.0047L83.088 57.706L83.088 57.706L81.0093 58.0047ZM74.6834 13.9702L76.762 13.6716L76.762 13.6716L74.6834 13.9702ZM94.1207 10.6137L96.1791 10.198L96.1791 10.1979L94.1207 10.6137ZM102.195 50.5859L100.136 51.0017L100.506 52.8325L102.367 52.6788L102.195 50.5859ZM103.695 50.462L103.868 52.5549L106.047 52.375L105.779 50.2053L103.695 50.462ZM99.3205 14.9444L101.405 14.6877L101.405 14.6877L99.3205 14.9444ZM115.562 12.2361L113.507 12.6695L113.507 12.6695L115.562 12.2361ZM122.559 45.4002L120.504 45.8337L120.895 47.6883L122.78 47.4885L122.559 45.4002ZM125.135 45.1271L125.356 47.2154L127.483 46.9899L127.219 44.8676L125.135 45.1271ZM122.248 21.9444L124.332 21.6849L124.332 21.6849L122.248 21.9444ZM138.878 17.9384L136.904 18.6564L136.904 18.6564L138.878 17.9384ZM152.59 55.6326L154.564 54.9146L154.564 54.9146L152.59 55.6326ZM158.803 67.0914L160.511 65.8692L160.511 65.8692L158.803 67.0914ZM164.825 121.671L166.58 122.825L166.58 122.825L164.825 121.671ZM138.479 148.254L137.331 146.496L137.331 146.496L138.479 148.254ZM123.997 155.244L124.635 157.245L124.635 157.245L123.997 155.244ZM82.6694 143.557L81.5584 145.339L81.5584 145.339L82.6694 143.557ZM32.5903 112.334L33.7013 110.552L33.7013 110.552L32.5903 112.334ZM40.5719 93.9468L41.1149 91.9182L41.1149 91.9182L40.5719 93.9468ZM64.8757 100.453L65.4188 98.4244L65.4188 98.4244L64.8757 100.453ZM69.05 27.6756L71.0432 27.0142L71.0432 27.0142L69.05 27.6756ZM72.4542 37.9355L74.4796 37.3807L74.4649 37.327L74.4474 37.2742L72.4542 37.9355ZM78.1171 58.6061L80.1425 58.0513L80.1425 58.0513L78.1171 58.6061ZM65.4816 99.8574L67.5192 99.3494L67.5192 99.3494L65.4816 99.8574ZM56.2373 62.7787L54.1679 63.1359L54.1811 63.2119L54.1997 63.2868L56.2373 62.7787ZM50.9621 32.21L48.8927 32.5671L48.8927 32.5671L50.9621 32.21ZM28.1775 101.061L26.1519 100.507L26.1519 100.507L28.1775 101.061ZM107.989 5.7113L107.864 7.80758L107.864 7.80758L107.989 5.7113ZM83.3916 2.7576L83.1664 0.669709L83.1664 0.669709L83.3916 2.7576ZM80.1482 59.5663L79.2915 57.649L79.2915 57.649L80.1482 59.5663ZM129.146 12.4322L128.745 10.3708L128.745 10.3708L129.146 12.4322ZM55.0774 22.7824L56.2225 24.5428L56.2225 24.5428L55.0774 22.7824ZM67.3154 63.801C66.339 64.427 66.055 65.726 66.681 66.7023C67.307 67.6787 68.6059 67.9627 69.5823 67.3367L67.3154 63.801ZM132.481 45.9449C133.62 45.7268 134.367 44.6265 134.149 43.4874C133.93 42.3483 132.83 41.6017 131.691 41.8198L132.481 45.9449ZM95.4999 102L97.5583 101.584C97.3757 100.681 97.5697 99.6012 98.1344 98.9022C98.5873 98.3416 99.5666 97.6706 101.831 98.0684L102.195 96L102.558 93.9316C99.128 93.3294 96.4788 94.2683 94.8675 96.2627C93.368 98.1186 93.062 100.539 93.4416 102.416L95.4999 102ZM108.755 91.5483H110.855C110.855 90.2968 111.285 89.1616 111.994 88.5042C112.599 87.9425 113.737 87.4221 115.948 88.0246L116.5 85.9984L117.052 83.9723C113.763 83.0763 111.029 83.6691 109.136 85.4261C107.347 87.0873 106.655 89.4763 106.655 91.5483H108.755ZM91.9999 113.5L93.9272 114.334L95.3227 111.109L93.3954 110.275L91.4682 109.441L90.0727 112.666L91.9999 113.5ZM124.156 87.2486V89.3486H127.75V87.2486V85.1486H124.156V87.2486ZM81.0093 58.0047L83.088 57.706L76.762 13.6716L74.6834 13.9702L72.6047 14.2688L78.9307 58.3033L81.0093 58.0047ZM94.1207 10.6137L92.0623 11.0295L100.136 51.0017L102.195 50.5859L104.253 50.1701L96.1791 10.198L94.1207 10.6137ZM102.195 50.5859L102.367 52.6788L103.868 52.5549L103.695 50.462L103.522 48.3691L102.022 48.493L102.195 50.5859ZM103.695 50.462L105.779 50.2053L101.405 14.6877L99.3205 14.9444L97.2363 15.2012L101.611 50.7187L103.695 50.462ZM115.562 12.2361L113.507 12.6695L120.504 45.8337L122.559 45.4002L124.613 44.9667L117.617 11.8026L115.562 12.2361ZM122.559 45.4002L122.78 47.4885L125.356 47.2154L125.135 45.1271L124.913 43.0388L122.337 43.3119L122.559 45.4002ZM125.135 45.1271L127.219 44.8676L124.332 21.6849L122.248 21.9444L120.164 22.2039L123.051 45.3866L125.135 45.1271ZM138.878 17.9384L136.904 18.6564L150.617 56.3505L152.59 55.6326L154.564 54.9146L140.851 17.2205L138.878 17.9384ZM158.803 67.0914L157.096 68.3136C166.66 81.6771 176.095 100.721 163.071 120.517L164.825 121.671L166.58 122.825C181.177 100.639 170.215 79.4282 160.511 65.8692L158.803 67.0914ZM138.479 148.254L137.331 146.496C133.112 149.252 128.313 151.664 123.359 153.243L123.997 155.244L124.635 157.245C130.003 155.534 135.143 152.942 139.628 150.012L138.479 148.254ZM82.6694 143.557L83.7805 141.775L33.7013 110.552L32.5903 112.334L31.4792 114.116L81.5584 145.339L82.6694 143.557ZM40.5719 93.9468L40.0288 95.9754L64.3327 102.481L64.8757 100.453L65.4188 98.4244L41.1149 91.9182L40.5719 93.9468ZM69.05 27.6756L67.0569 28.3369L70.4611 38.5968L72.4542 37.9355L74.4474 37.2742L71.0432 27.0142L69.05 27.6756ZM72.4542 37.9355L70.4288 38.4904L76.0917 59.161L78.1171 58.6061L80.1425 58.0513L74.4796 37.3807L72.4542 37.9355ZM65.4816 99.8574L67.5192 99.3494L58.275 62.2707L56.2373 62.7787L54.1997 63.2868L63.444 100.365L65.4816 99.8574ZM56.2373 62.7787L58.3068 62.4216L53.0315 31.8528L50.9621 32.21L48.8927 32.5671L54.1679 63.1359L56.2373 62.7787ZM28.1775 101.061L30.203 101.615C31.3694 97.3526 35.7598 94.8325 40.0288 95.9754L40.5719 93.9468L41.1149 91.9182C34.6139 90.1779 27.9281 94.0155 26.1519 100.507L28.1775 101.061ZM32.5903 112.334L33.7013 110.552C30.6883 108.674 29.2659 105.04 30.203 101.615L28.1775 101.061L26.1519 100.507C24.7249 105.722 26.8909 111.256 31.4792 114.116L32.5903 112.334ZM123.997 155.244L123.359 153.243C116.783 155.34 110.136 154.519 103.457 152.118C96.7454 149.704 90.1671 145.757 83.7805 141.775L82.6694 143.557L81.5584 145.339C87.9234 149.308 94.8502 153.486 102.035 156.07C109.253 158.665 116.894 159.713 124.635 157.245L123.997 155.244ZM164.825 121.671L163.071 120.517C156.364 130.711 147.503 139.85 137.331 146.496L138.479 148.254L139.628 150.012C150.325 143.023 159.585 133.456 166.58 122.825L164.825 121.671ZM152.59 55.6326L150.617 56.3505C152.191 60.6784 154.473 64.6497 157.096 68.3136L158.803 67.0914L160.511 65.8692C158.049 62.4293 155.976 58.796 154.564 54.9146L152.59 55.6326ZM107.989 5.7113L107.864 7.80758C110.626 7.97211 112.936 9.96281 113.507 12.6695L115.562 12.2361L117.617 11.8026C116.655 7.24443 112.764 3.89208 108.114 3.61502L107.989 5.7113ZM99.3205 14.9444L101.405 14.6877C100.936 10.88 104.035 7.5794 107.864 7.80758L107.989 5.7113L108.114 3.61502C101.665 3.23075 96.4465 8.78893 97.2363 15.2012L99.3205 14.9444ZM83.3916 2.7576L83.6168 4.84549C87.6069 4.41515 91.2677 7.09571 92.0623 11.0295L94.1207 10.6137L96.1791 10.1979C94.9549 4.13681 89.3143 0.00664108 83.1664 0.669709L83.3916 2.7576ZM74.6834 13.9702L76.762 13.6716C76.1368 9.31965 79.2455 5.31695 83.6168 4.84549L83.3916 2.7576L83.1664 0.669709C76.4312 1.39612 71.6414 7.56344 72.6047 14.2688L74.6834 13.9702ZM80.1482 59.5663L81.0049 61.4836C82.4651 60.8311 83.3154 59.2892 83.088 57.706L81.0093 58.0047L78.9307 58.3033C78.8913 58.0291 79.0385 57.762 79.2915 57.649L80.1482 59.5663ZM129.146 12.4322L129.547 14.4936C132.689 13.8822 135.81 15.6477 136.904 18.6564L138.878 17.9384L140.851 17.2205C139.05 12.2699 133.916 9.36491 128.745 10.3708L129.146 12.4322ZM80.1482 59.5663L79.2915 57.649C79.6385 57.4939 80.042 57.6847 80.1425 58.0513L78.1171 58.6061L76.0917 59.161C76.6715 61.2773 79.0015 62.3788 81.0049 61.4836L80.1482 59.5663ZM122.248 21.9444L124.332 21.6849C123.909 18.2896 126.188 15.1469 129.547 14.4936L129.146 12.4322L128.745 10.3708C123.218 11.4459 119.469 16.6171 120.164 22.2039L122.248 21.9444ZM55.0774 22.7824L56.2225 24.5428C60.2048 21.9522 65.5608 23.8279 67.0569 28.3369L69.05 27.6756L71.0432 27.0142C68.6804 19.8931 60.2215 16.9309 53.9323 21.0221L55.0774 22.7824ZM55.0774 22.7824L53.9323 21.0221C50.0962 23.5175 48.1145 28.0574 48.8927 32.5671L50.9621 32.21L53.0315 31.8529C52.5388 28.9974 53.7936 26.1228 56.2225 24.5428L55.0774 22.7824ZM64.8757 100.453L64.3327 102.481C66.2412 102.992 67.9972 101.266 67.5192 99.3494L65.4816 99.8574L63.444 100.365C63.1478 99.1773 64.236 98.1077 65.4188 98.4244L64.8757 100.453ZM68.4488 65.5689L69.5823 67.3367C76.354 62.9951 98.6783 52.4165 132.481 45.9449L132.086 43.8823L131.691 41.8198C97.4856 48.3686 74.6317 59.1102 67.3154 63.801L68.4488 65.5689ZM93.9743 112.435L92.8617 114.216C95.7984 116.051 99.7223 116.836 103.755 116.702C107.817 116.566 112.176 115.494 116.089 113.404C120.01 111.31 123.53 108.166 125.805 103.873C128.088 99.5636 129.045 94.2295 128.042 87.8961L125.967 88.2248L123.893 88.5534C124.77 94.0849 123.907 98.484 122.094 101.907C120.272 105.345 117.418 107.933 114.11 109.699C110.794 111.47 107.069 112.389 103.615 112.504C100.133 112.62 97.1084 111.917 95.087 110.654L93.9743 112.435Z" fill="#02CD92"/>
<path d="M168.461 58C172.662 61.5886 181.867 73.4939 185.08 92.4063M182.806 59.4624C185.596 62.3266 191.584 71.0173 193.21 82.8663" stroke="#02CD92" stroke-width="4.2" stroke-linecap="round"/>
<path d="M15.4336 122.172C13.5899 116.963 11.5708 102.051 18.2439 84.0651M3.7419 113.733C2.75741 109.857 1.91737 99.3369 6.4331 88.262" stroke="#02CD92" stroke-width="4.2" stroke-linecap="round"/>
</g>
<defs>
<clipPath id="clip0_9_134">
<rect width="196" height="160" fill="white"/>
</clipPath>
</defs>
</svg>
