<svg width="163" height="171" viewBox="0 0 163 171" fill="none" xmlns="http://www.w3.org/2000/svg">
<g clip-path="url(#clip0_564_1839)">
<path d="M92.3059 151.96C91.4739 149.611 92.5289 144.921 93.1599 142.87C99.1499 143.887 113.508 141.976 124.921 131.666C134.051 123.417 138.644 108.239 139.8 101.68C141.163 101.489 144.489 101.376 146.891 102.458C149.893 103.811 160.312 117.181 160.579 117.791L161.911 120.842C159.629 128.134 152.396 144.998 141.716 154.116C128.367 165.515 111.87 168.601 109.668 169.079C107.905 169.461 105.151 168.306 103.994 167.682C100.445 163.42 93.1389 154.308 92.3059 151.96Z" fill="white"/>
<path fill-rule="evenodd" clip-rule="evenodd" d="M72.8692 6.7932C70.9548 9.6207 69.8743 14.4696 70.0302 20.6037C70.1541 25.4812 71.3522 33.2612 72.8259 41.0854C74.294 48.8795 76.0152 56.614 77.151 61.3495C77.2157 61.6194 77.1991 61.8898 77.1171 62.135C77.1963 62.673 76.9633 63.2326 76.4762 63.5461C75.8122 63.9734 74.9277 63.7816 74.5004 63.1176C73.1943 61.0881 71.6758 59.117 69.9821 56.9183C65.4941 51.0922 59.775 43.6681 53.5126 29.3258C51.8416 25.4987 49.5239 23.0617 47.224 21.8574C44.9372 20.66 42.6719 20.6674 40.8552 21.6729C39.0261 22.6852 37.4002 24.852 36.735 28.4654C36.069 32.0836 36.3917 37.0722 38.4265 43.4708C46.4514 68.7057 63.337 83.792 65.8817 86.065C65.9393 86.117 65.9896 86.162 66.0322 86.2C67.1808 87.232 67.909 88.644 68.2572 90.066C68.605 91.486 68.6018 93.027 68.1626 94.377C67.7192 95.741 66.7889 97.003 65.2522 97.568C63.7359 98.125 61.9407 97.888 59.9899 96.939C56.3212 95.154 52.4118 92.111 48.8068 88.946C46.0524 86.528 43.4107 83.979 41.1446 81.792C40.4375 81.11 39.767 80.463 39.1411 79.866C34.4081 75.3547 27.2953 76.4818 24.4697 80.119C23.7093 81.098 22.9663 82.328 22.6252 83.927C22.2862 85.516 22.3216 87.578 23.2842 90.256C25.2337 95.681 30.9547 103.546 44.7654 114.74C58.6412 125.987 70.3223 134.376 81.6492 138.32C92.8592 142.224 103.77 141.788 116.232 135.186C128.512 128.681 134.772 116.219 137.6 103.089C140.425 89.971 139.761 76.4346 138.408 68.2213C137.044 59.9367 134.554 49.6566 130.896 41.4795C129.065 37.3871 126.977 33.903 124.654 31.4594C122.886 29.5992 121.043 28.4023 119.117 27.9352C119.266 28.6407 119.409 29.3502 119.546 30.0618C121.569 40.5125 122.407 54.2849 122.575 59.8628C122.599 60.652 121.979 61.3111 121.19 61.3349C120.4 61.3587 119.741 60.7382 119.717 59.949C119.551 54.4282 118.719 40.8334 116.739 30.6051C115.493 24.1664 113.885 18.2514 111.465 14.0262C109.072 9.8468 106.048 7.5631 101.923 7.7504C100.074 7.8344 98.2071 9.2966 96.6041 11.9042C95.0391 14.4514 93.9482 17.7563 93.5372 20.7462C93.5132 20.9238 93.4572 21.0893 93.3762 21.2377C93.7572 22.4829 94.1232 23.7606 94.4742 25.0622C97.4322 36.0263 99.4092 48.9145 100.612 58.9212C100.706 59.7051 100.147 60.417 99.3632 60.5113C98.5792 60.6055 97.8672 60.0464 97.7732 59.2625C96.5762 49.3069 94.6191 36.5758 91.7132 25.807C90.2602 20.4184 88.5832 15.578 86.6752 11.8387C84.7362 8.0404 82.6902 5.6435 80.6362 4.7467C78.801 3.9457 77.3086 3.8631 76.1069 4.2143C74.903 4.5662 73.8078 5.4069 72.8692 6.7932ZM91.6462 16.1181C90.8892 14.1007 90.0822 12.2249 89.2212 10.5388C87.2152 6.6068 84.8072 2.9964 81.8032 1.6847C79.5052 0.681302 77.315 0.447601 75.3283 1.0283C73.3438 1.6082 71.7443 2.9473 70.5248 4.7486C68.1228 8.2964 67.0097 14.2953 67.1718 20.6763C67.3022 25.8108 68.5437 33.7976 70.0161 41.6146C70.9868 46.7683 72.0668 51.8934 73.0182 56.1569C72.71 55.7547 72.3968 55.3485 72.0789 54.9362C67.6263 49.1594 62.2433 42.1756 56.133 28.1816C54.2605 23.8931 51.07 20.0891 48.0746 18.5206C45.0659 16.9453 41.773 16.8299 38.9949 18.3675C36.2292 19.8982 34.2238 22.9256 33.4472 27.1441C32.6716 31.3578 33.5726 37.6423 35.7016 44.3373C43.9632 70.3163 61.3238 85.827 63.9647 88.187C64.0246 88.24 64.0769 88.287 64.1214 88.327C64.7596 88.9 65.2393 89.764 65.4799 90.746C65.721 91.73 65.6941 92.723 65.4435 93.493C65.1971 94.25 64.7782 94.696 64.2657 94.884C63.7329 95.08 62.7792 95.116 61.2407 94.368C57.931 92.758 54.2572 89.926 50.6933 86.797C47.9948 84.428 45.4233 81.947 43.1646 79.768C42.4475 79.076 41.762 78.415 41.114 77.797C35.2041 72.1632 26.1168 73.3379 22.2116 78.365C21.2892 79.553 20.2891 81.172 19.8288 83.33C19.3665 85.498 19.4715 88.102 20.5934 91.223C22.8129 97.399 29.0368 105.672 42.9651 116.961C56.8284 128.198 68.8568 136.893 80.7092 141.021C84.3142 142.276 87.8981 143.107 91.5061 143.466C91.2361 144.492 90.9521 145.787 90.7691 147.108C90.5281 148.847 90.4182 150.911 90.9592 152.438C91.2402 153.231 91.9672 154.392 92.8062 155.616C93.6842 156.897 94.8032 158.411 95.9962 159.972C98.3862 163.096 101.113 166.455 102.896 168.597L103.072 168.809L103.315 168.94C103.967 169.292 105.033 169.776 106.19 170.126C107.298 170.462 108.72 170.747 109.971 170.476C110.062 170.456 110.178 170.432 110.319 170.403C113.556 169.725 129.56 166.377 142.645 155.204C148.172 150.485 152.75 143.82 156.217 137.481C159.692 131.129 162.107 125.004 163.276 121.269L163.435 120.759L161.889 117.219C161.804 117.023 161.65 116.806 161.588 116.717C161.485 116.569 161.348 116.38 161.186 116.162C160.861 115.723 160.413 115.135 159.878 114.449C158.807 113.077 157.375 111.293 155.856 109.484C154.34 107.679 152.724 105.834 151.288 104.346C150.571 103.604 149.884 102.935 149.267 102.401C148.678 101.89 148.055 101.415 147.479 101.155C146.059 100.515 144.436 100.254 143.047 100.165C142.343 100.12 141.671 100.118 141.078 100.141C143.187 87.76 142.954 75.3291 141.679 67.5886C140.295 59.1794 137.753 48.6328 133.955 40.1436C132.058 35.9028 129.812 32.0938 127.176 29.3212C124.81 26.8323 121.597 25.2641 118.436 24.9175C117.322 20.3146 115.9 16.0172 113.947 12.6053C111.252 7.8998 107.385 4.6401 101.793 4.8941C98.5002 5.0436 95.9322 7.5376 94.1682 10.4071C93.1132 12.1243 92.2622 14.1038 91.6462 16.1181ZM94.2062 144.445C93.9822 145.329 93.7522 146.409 93.6012 147.5C93.3652 149.206 93.3632 150.661 93.6542 151.483C93.7902 151.864 94.2892 152.722 95.1652 154C96.0022 155.222 97.0872 156.692 98.2682 158.235C100.546 161.214 103.144 164.421 104.91 166.547C105.431 166.809 106.202 167.143 107.018 167.39C108.017 167.692 108.854 167.793 109.365 167.682C109.456 167.662 109.57 167.638 109.707 167.61C112.898 166.94 128.277 163.713 140.788 153.03C145.941 148.63 150.32 142.304 153.709 136.108C156.936 130.209 159.216 124.521 160.386 120.921L159.303 118.441C159.29 118.422 159.27 118.392 159.241 118.35C159.161 118.235 159.043 118.072 158.889 117.864C158.582 117.45 158.149 116.882 157.623 116.208C156.571 114.86 155.161 113.103 153.666 111.323C152.169 109.541 150.601 107.752 149.231 106.333C148.545 105.622 147.923 105.019 147.394 104.562C146.838 104.079 146.478 103.841 146.304 103.762C145.323 103.32 144.081 103.097 142.865 103.019C142.181 102.975 141.538 102.98 141.003 103.007C140.308 106.424 138.895 111.43 136.664 116.606C134.19 122.343 130.659 128.409 125.879 132.727C119.984 138.053 113.337 141.202 107.398 142.891C102.209 144.367 97.4862 144.748 94.2062 144.445ZM16.1654 67.4696C16.8196 67.9117 16.9916 68.8004 16.5495 69.4546C11.2056 77.363 11.251 85.024 13.461 91.451C15.6931 97.942 20.1439 103.175 23.542 105.978C24.1512 106.48 24.2378 107.381 23.7354 107.99C23.2331 108.599 22.332 108.686 21.7229 108.184C18.0073 105.12 12.0824 99.561 9.64445 92.472C7.18435 85.317 8.26545 76.6071 14.1804 67.8537C14.6224 67.1995 15.5111 67.0275 16.1654 67.4696ZM3.93505 77.845C4.64145 78.197 4.92815 79.056 4.57535 79.762C2.98145 82.954 2.99005 86.673 3.73935 89.954C4.11145 91.584 4.65775 93.064 5.24345 94.26C5.84105 95.48 6.43675 96.317 6.86365 96.726C7.43365 97.272 7.45285 98.177 6.90645 98.747C6.36005 99.317 5.45505 99.336 4.88505 98.79C4.11705 98.054 3.34525 96.885 2.67555 95.518C1.99395 94.126 1.37345 92.437 0.951853 90.591C0.113753 86.921 0.0281519 82.468 2.01725 78.485C2.37005 77.779 3.22865 77.492 3.93505 77.845ZM143.534 38.1711C144.266 37.874 145.1 38.2262 145.397 38.9577C152.874 57.3682 154.205 75.7081 153.929 82.672C153.897 83.461 153.232 84.075 152.443 84.044C151.654 84.013 151.04 83.348 151.072 82.559C151.335 75.9391 150.05 58.0133 142.748 40.0337C142.451 39.3021 142.803 38.4682 143.534 38.1711ZM157.226 45.7128C157.957 45.415 158.791 45.7665 159.089 46.4977C162.055 53.7814 162.644 61.363 162.565 64.323C162.544 65.1123 161.887 65.7351 161.098 65.714C160.309 65.693 159.686 65.0361 159.707 64.2468C159.778 61.5947 159.228 54.4205 156.441 47.5761C156.143 46.8448 156.495 46.0106 157.226 45.7128ZM78.772 100.387C78.5711 99.623 79.0272 98.842 79.7912 98.641C82.6152 97.898 87.2182 97.153 91.9532 97.307C96.6462 97.46 101.743 98.505 105.279 101.608C105.872 102.129 105.931 103.032 105.41 103.626C104.89 104.219 103.986 104.278 103.393 103.758C100.602 101.309 96.3212 100.311 91.8602 100.165C87.4422 100.021 83.1182 100.722 80.5182 101.406C79.7552 101.607 78.9728 101.151 78.772 100.387Z" fill="white"/>
</g>
<defs>
<clipPath id="clip0_564_1839">
<rect width="163" height="171" fill="white"/>
</clipPath>
</defs>
</svg>
