<svg xmlns="http://www.w3.org/2000/svg" viewBox="0 0 50 50" width="50" height="50" preserveAspectRatio="xMidYMid meet" style="width: 100%; height: 100%; transform: translate3d(0px, 0px, 0px);"><defs><clipPath id="__lottie_element_2"><rect width="50" height="50" x="0" y="0"></rect></clipPath><filter id="__lottie_element_7" filterUnits="objectBoundingBox" x="0%" y="0%" width="100%" height="100%"><feComponentTransfer in="SourceGraphic"><feFuncA type="table" tableValues="1.0 0.0"></feFuncA></feComponentTransfer></filter><mask id="__lottie_element_6" mask-type="alpha"><g filter="url(#__lottie_element_7)"><rect width="50" height="50" x="0" y="0" fill="#ffffff" opacity="0"></rect><g transform="matrix(0.8421030044555664,-0.5393167734146118,0.5393167734146118,0.8421030044555664,-4.092962265014648,16.114381790161133)" opacity="1" style="display: block;"><g opacity="1" transform="matrix(1,0,0,1,25,25)"><path fill="rgb(252,255,211)" fill-opacity="1" d=" M18.031999588012695,-18.01099967956543 C16.733999252319336,-19.308000564575195 16.542999267578125,-17.80299949645996 14.708999633789062,-17.80299949645996 C13.154999732971191,-17.80299949645996 11.680000305175781,-17.291000366210938 10.47700023651123,-16.347000122070312 C10.47700023651123,-16.347000122070312 9.020999908447266,-14.970999717712402 9.020999908447266,-14.970999717712402 C9.020999908447266,-14.970999717712402 -6.5269999504089355,0.5830000042915344 -6.5269999504089355,0.5830000042915344 C-6.900000095367432,0.9559999704360962 -7.168000221252441,1.4210000038146973 -7.303999900817871,1.9290000200271606 C-7.303999900817871,1.9290000200271606 -10.734000205993652,7.189000129699707 -10.734000205993652,7.189000129699707 C-11.01099967956543,8.220999717712402 -10.826000213623047,9.33899974822998 -10.069000244140625,10.095000267028809 C-9.505000114440918,10.66100025177002 -8.75100040435791,10.973999977111816 -7.947999954223633,10.973999977111816 C-7.681000232696533,10.973999977111816 -7.416999816894531,10.939000129699707 -7.1620001792907715,10.869000434875488 C-7.1620001792907715,10.869000434875488 0.3190000057220459,8.862000465393066 0.3190000057220459,8.862000465393066 C0.8299999833106995,8.723999977111816 1.2929999828338623,8.456000328063965 1.6629999876022339,8.086000442504883 C1.6629999876022339,8.086000442504883 15.79800033569336,-6.054999828338623 15.79800033569336,-6.054999828338623 C15.79800033569336,-6.054999828338623 18.583999633789062,-8.925000190734863 18.583999633789062,-8.925000190734863 C20.69300079345703,-11.616999626159668 20.510000228881836,-15.532999992370605 18.031999588012695,-18.01099967956543z"></path></g></g></g></mask></defs><g clip-path="url(#__lottie_element_2)"><g mask="url(#__lottie_element_6)" style="display: block;"><g transform="matrix(0.7071067690849304,-0.7071067690849304,0.7071067690849304,0.7071067690849304,-10.355339050292969,46.6879997253418)" opacity="1"><g opacity="1" transform="matrix(1,0,0,1,25.00200080871582,25)"><path stroke-linecap="butt" stroke-linejoin="miter" fill-opacity="0" stroke="white" stroke-miterlimit="10" stroke-width="2" d=" M-18.54199981689453,-15.321999549865723 C-18.54199981689453,-15.321999549865723 -12.935999870300293,-20.93899917602539 -12.935999870300293,-20.93899917602539 C-12.935999870300293,-20.93899917602539 20.986000061035156,12.984999656677246 20.986000061035156,12.984999656677246 C20.986000061035156,12.984999656677246 15.380999565124512,18.601999282836914 15.380999565124512,18.601999282836914 C15.380999565124512,18.601999282836914 -18.54199981689453,-15.321999549865723 -18.54199981689453,-15.321999549865723z"></path></g><g opacity="1" transform="matrix(1,0,0,1,13.00100040435791,7)"><path stroke-linecap="butt" stroke-linejoin="miter" fill-opacity="0" stroke="white" stroke-miterlimit="10" stroke-width="2" d=" M-0.8730000257492065,1.1380000114440918 C-0.8730000257492065,1.1380000114440918 1.1269999742507935,-0.8619999885559082 1.1269999742507935,-0.8619999885559082"></path></g><g opacity="1" transform="matrix(1,0,0,1,19.000999450683594,13)"><path stroke-linecap="butt" stroke-linejoin="miter" fill-opacity="0" stroke="white" stroke-miterlimit="10" stroke-width="2" d=" M-1,1 C-1,1 1,-1 1,-1"></path></g><g opacity="1" transform="matrix(1,0,0,1,15.50100040435791,10.5)"><path stroke-linecap="butt" stroke-linejoin="miter" fill-opacity="0" stroke="white" stroke-miterlimit="10" stroke-width="2" d=" M-1.2979999780654907,1.2979999780654907 C-1.2979999780654907,1.2979999780654907 1.5,-1.5 1.5,-1.5"></path></g><g opacity="1" transform="matrix(1,0,0,1,25.00200080871582,19)"><path stroke-linecap="butt" stroke-linejoin="miter" fill-opacity="0" stroke="white" stroke-miterlimit="10" stroke-width="2" d=" M-1,1 C-1,1 1,-1 1,-1"></path></g><g opacity="1" transform="matrix(1,0,0,1,21.500999450683594,16.5)"><path stroke-linecap="butt" stroke-linejoin="miter" fill-opacity="0" stroke="white" stroke-miterlimit="10" stroke-width="2" d=" M-1.2979999780654907,1.2979999780654907 C-1.2979999780654907,1.2979999780654907 1.5,-1.5 1.5,-1.5"></path></g><g opacity="1" transform="matrix(1,0,0,1,31.003000259399414,25)"><path stroke-linecap="butt" stroke-linejoin="miter" fill-opacity="0" stroke="white" stroke-miterlimit="10" stroke-width="2" d=" M-1,1 C-1,1 1,-1 1,-1"></path></g><g opacity="1" transform="matrix(1,0,0,1,27.50200080871582,22.5)"><path stroke-linecap="butt" stroke-linejoin="miter" fill-opacity="0" stroke="white" stroke-miterlimit="10" stroke-width="2" d=" M-1.2979999780654907,1.2979999780654907 C-1.2979999780654907,1.2979999780654907 1.5,-1.5 1.5,-1.5"></path></g><g opacity="1" transform="matrix(1,0,0,1,37.00299835205078,31)"><path stroke-linecap="butt" stroke-linejoin="miter" fill-opacity="0" stroke="white" stroke-miterlimit="10" stroke-width="2" d=" M-1,1 C-1,1 1,-1 1,-1"></path></g><g opacity="1" transform="matrix(1,0,0,1,33.50299835205078,28.5)"><path stroke-linecap="butt" stroke-linejoin="miter" fill-opacity="0" stroke="white" stroke-miterlimit="10" stroke-width="2" d=" M-1.2979999780654907,1.2979999780654907 C-1.2979999780654907,1.2979999780654907 1.5,-1.5 1.5,-1.5"></path></g><g opacity="1" transform="matrix(1,0,0,1,42.90999984741211,36.90599822998047)"><path stroke-linecap="butt" stroke-linejoin="miter" fill-opacity="0" stroke="white" stroke-miterlimit="10" stroke-width="2" d=" M-1.0169999599456787,0.9829999804496765 C-1.0169999599456787,0.9829999804496765 0.9829999804496765,-1.0169999599456787 0.9829999804496765,-1.0169999599456787"></path></g><g opacity="1" transform="matrix(1,0,0,1,39.409000396728516,34.40599822998047)"><path stroke-linecap="butt" stroke-linejoin="miter" fill-opacity="0" stroke="white" stroke-miterlimit="10" stroke-width="2" d=" M-1.2979999780654907,1.2979999780654907 C-1.2979999780654907,1.2979999780654907 1.5,-1.5 1.5,-1.5"></path></g></g></g><g transform="matrix(0.8421030044555664,-0.5393167734146118,0.5393167734146118,0.8421030044555664,-4.092962265014648,16.114381790161133)" opacity="1" style="display: block;"><g opacity="1" transform="matrix(1,0,0,1,24.02400016784668,25.976999282836914)"><path stroke-linecap="butt" stroke-linejoin="round" fill-opacity="0" stroke="white" stroke-opacity="1" stroke-width="2" d=" M16.05500030517578,-10.574999809265137 C16.05500030517578,-10.574999809265137 -3.5510001182556152,8.99899959564209 -3.5510001182556152,8.99899959564209 C-3.5510001182556152,8.99899959564209 -11.039999961853027,11.008000373840332 -11.039999961853027,11.008000373840332 C-11.039999961853027,11.008000373840332 -9.031000137329102,3.5190000534057617 -9.031000137329102,3.5190000534057617 C-9.031000137329102,3.5190000534057617 10.574999809265137,-16.05500030517578 10.574999809265137,-16.05500030517578"></path></g><g opacity="1" transform="matrix(1,0,0,1,25.974000930786133,24.024999618530273)"><path fill="white" fill-opacity="1" d=" M-10.798999786376953,5.2870001792907715 C-10.798999786376953,5.2870001792907715 -5.317999839782715,10.765999794006348 -5.317999839782715,10.765999794006348 C-5.317999839782715,10.765999794006348 -12.515999794006348,12.484999656677246 -12.515999794006348,12.484999656677246 C-12.515999794006348,12.484999656677246 -10.798999786376953,5.2870001792907715 -10.798999786376953,5.2870001792907715z"></path></g><g opacity="1" transform="matrix(1,0,0,1,25.974000930786133,24.024999618530273)"><path fill="white" fill-opacity="1" d=" M14.805999755859375,-7.922999858856201 C14.800999641418457,-7.919000148773193 15.630000114440918,-8.748000144958496 15.630000114440918,-8.748000144958496 C17.5310001373291,-10.64900016784668 17.5310001373291,-13.730999946594238 15.631999969482422,-15.630999565124512 C13.729000091552734,-17.533000946044922 10.64799976348877,-17.5310001373291 8.748000144958496,-15.630999565124512 C8.748000144958496,-15.630999565124512 7.921999931335449,-14.805999755859375 7.921999931335449,-14.805999755859375 C7.921999931335449,-14.805999755859375 14.805999755859375,-7.922999858856201 14.805999755859375,-7.922999858856201z"></path></g></g></g></svg>